HIERARCHY
ROOT Hips
{
	OFFSET -0.001795 -0.223333 0.028219
	CHANNELS 6 Xposition Yposition Zposition Zrotation Yrotation Xrotation 
	JOINT LeftUpLeg
	{
		OFFSET 0.069520 -0.091406 -0.006815
		CHANNELS 3 Zrotation Yrotation Xrotation
		JOINT LeftLeg
		{
			OFFSET 0.034277 -0.375199 -0.004496
			CHANNELS 3 Zrotation Yrotation Xrotation
			JOINT LeftFoot
			{
				OFFSET -0.013596 -0.397961 -0.043693
				CHANNELS 3 Zrotation Yrotation Xrotation
				JOINT LeftToe
				{
					OFFSET 0.026358 -0.055791 0.119288
					CHANNELS 3 Zrotation Yrotation Xrotation
					End Site
					{
						OFFSET 0.000000 0.000000 0.000000
					}
				}
			}
		}
	}
	JOINT RightUpLeg
	{
		OFFSET -0.067670 -0.090522 -0.004320
		CHANNELS 3 Zrotation Yrotation Xrotation
		JOINT RightLeg
		{
			OFFSET -0.038290 -0.382569 -0.008850
			CHANNELS 3 Zrotation Yrotation Xrotation
			JOINT RightFoot
			{
				OFFSET 0.015774 -0.398415 -0.042312
				CHANNELS 3 Zrotation Yrotation Xrotation
				JOINT RightToe
				{
					OFFSET -0.025372 -0.048144 0.123348
					CHANNELS 3 Zrotation Yrotation Xrotation
					End Site
					{
						OFFSET 0.000000 0.000000 0.000000
					}
				}
			}
		}
	}
	JOINT Spine
	{
		OFFSET -0.002533 0.108963 -0.026696
		CHANNELS 3 Zrotation Yrotation Xrotation
		JOINT Spine1
		{
			OFFSET 0.005487 0.135180 0.001092
			CHANNELS 3 Zrotation Yrotation Xrotation
			JOINT Spine2
			{
				OFFSET 0.001457 0.052922 0.025425
				CHANNELS 3 Zrotation Yrotation Xrotation
				JOINT Neck
				{
					OFFSET -0.002778 0.213870 -0.042857
					CHANNELS 3 Zrotation Yrotation Xrotation
					JOINT Head
					{
						OFFSET 0.005152 0.064970 0.051349
						CHANNELS 3 Zrotation Yrotation Xrotation
						End Site
						{
							OFFSET 0.000000 0.000000 0.000000
						}
					}
				}
				JOINT LeftShoulder
				{
					OFFSET 0.078845 0.121749 -0.034090
					CHANNELS 3 Zrotation Yrotation Xrotation
					JOINT LeftArm
					{
						OFFSET 0.090977 0.030469 -0.008868
						CHANNELS 3 Zrotation Yrotation Xrotation
						JOINT LeftForeArm
						{
							OFFSET 0.259612 -0.012772 -0.027456
							CHANNELS 3 Zrotation Yrotation Xrotation
							JOINT LeftHand
							{
								OFFSET 0.249234 0.008986 -0.001171
								CHANNELS 3 Zrotation Yrotation Xrotation
								End Site
								{
									OFFSET 0.000000 0.000000 0.000000
								}
							}
						}
					}
				}
				JOINT RightShoulder
				{
					OFFSET -0.081759 0.118833 -0.038615
					CHANNELS 3 Zrotation Yrotation Xrotation
					JOINT RightArm
					{
						OFFSET -0.096012 0.032551 -0.009143
						CHANNELS 3 Zrotation Yrotation Xrotation
						JOINT RightForeArm
						{
							OFFSET -0.253742 -0.013329 -0.021401
							CHANNELS 3 Zrotation Yrotation Xrotation
							JOINT RightHand
							{
								OFFSET -0.255298 0.007772 -0.005559
								CHANNELS 3 Zrotation Yrotation Xrotation
								End Site
								{
									OFFSET 0.000000 0.000000 0.000000
								}
							}
						}
					}
				}
			}
		}
	}
}
MOTION
Frames: 14
Frame Time: 0.050000
-0.089435 0.873443 -0.290415 8.743437 9.564142 4.475717 7.532803 -1.301724 -22.615805 -10.172662 1.645775 26.032217 4.778461 8.339831 -4.625672 0.000000 0.000000 0.000000 -18.826511 -3.244899 -32.501391 13.422966 -7.999696 47.317542 1.911287 2.574327 4.251681 0.000000 0.000000 0.000000 4.766610 -4.506684 37.767948 8.468339 -1.914326 -16.641962 7.418066 14.013831 27.347481 0.968389 4.259249 -35.334232 0.000000 0.000000 0.000000 -34.968603 -5.031240 -8.260890 -41.820727 3.723961 -5.341894 -18.253475 -49.363609 8.715802 0.000000 0.000000 0.000000 19.305256 22.908096 16.197287 9.144395 29.026855 -1.285919 -28.305146 10.138752 -1.366938 0.000000 0.000000 0.000000 
-0.085358 0.878613 -0.291038 8.288436 9.581790 4.215677 7.738843 -1.203408 -21.657320 -10.224419 1.642434 24.697660 4.543908 8.056273 -3.953623 0.000000 0.000000 0.000000 -18.345383 -2.861151 -30.681802 13.446582 -7.626370 44.932239 1.272533 1.809525 2.802840 0.000000 0.000000 0.000000 4.166284 -3.982006 35.761007 8.420363 -1.951258 -16.260355 7.433229 13.121323 27.471937 0.189123 4.496236 -35.477801 0.000000 0.000000 0.000000 -35.305792 -5.149108 -7.908249 -42.070077 3.271658 -5.308713 -16.554872 -48.087754 7.822090 0.000000 0.000000 0.000000 18.989579 22.682787 15.771098 12.170627 29.330032 -0.905178 -28.985410 13.331699 -2.093643 0.000000 0.000000 0.000000 
-0.079583 0.885717 -0.291248 7.688348 9.861720 3.698545 7.766708 -1.104503 -20.043362 -9.921728 1.496728 22.721761 4.143195 7.437794 -3.160872 0.000000 0.000000 0.000000 -17.722843 -2.450287 -28.278520 13.343030 -7.171433 42.066989 0.692461 0.773405 2.108386 0.000000 0.000000 0.000000 3.970647 -3.695591 34.063635 8.478370 -2.020996 -15.832695 6.913749 12.640743 27.343158 0.826705 4.200818 -36.117168 0.000000 0.000000 0.000000 -34.877734 -5.817041 -7.148557 -41.954961 1.942196 -4.924538 -15.607376 -46.259458 7.129818 0.000000 0.000000 0.000000 19.672556 22.065585 15.639196 14.202934 29.101167 -0.733327 -30.367904 16.695156 -2.976284 0.000000 0.000000 0.000000 
-0.072143 0.893459 -0.291287 7.154189 9.643696 3.564439 7.761522 -1.005406 -18.557862 -9.850768 1.460037 20.395265 3.872454 7.260917 -2.132842 0.000000 0.000000 0.000000 -17.445806 -2.106583 -26.134788 13.051940 -6.478533 38.958796 1.043421 1.878564 1.560907 0.000000 0.000000 0.000000 3.503451 -3.211010 31.771489 8.513906 -2.113859 -15.217225 6.923457 12.116731 27.275410 0.457405 4.283846 -36.158039 0.000000 0.000000 0.000000 -35.038601 -5.911296 -6.858230 -41.485138 1.467044 -4.757653 -16.621369 -44.036123 7.253477 0.000000 0.000000 0.000000 19.335257 20.911067 14.734275 18.815431 27.876926 -0.302276 -32.398038 24.164868 -4.983711 0.000000 0.000000 0.000000 
-0.063153 0.901742 -0.291145 6.313854 9.547940 3.137662 7.962742 -0.872789 -16.672175 -9.750560 1.394166 17.871684 3.534173 6.931539 -1.136764 0.000000 0.000000 0.000000 -16.582895 -1.656520 -23.724307 12.394471 -5.619854 35.466220 1.157366 1.881300 2.184298 0.000000 0.000000 0.000000 2.959482 -2.866120 30.417762 9.506682 -2.502492 -14.854867 6.554702 12.114233 27.108900 0.437160 4.303934 -36.258517 0.000000 0.000000 0.000000 -35.027012 -5.752896 -6.955305 -41.286531 1.070350 -4.600771 -17.817339 -42.653516 7.481777 0.000000 0.000000 0.000000 19.695136 19.489162 14.061885 22.088042 26.073625 -0.251719 -34.216413 32.951577 -7.561759 0.000000 0.000000 0.000000 
-0.052943 0.909169 -0.291629 5.818734 9.702763 3.083816 7.573859 -0.844128 -15.334875 -9.397391 1.259468 15.580271 3.166125 6.546911 -0.189380 0.000000 0.000000 0.000000 -16.312983 -1.407194 -21.404193 11.899319 -4.854558 31.373812 1.315764 1.817565 3.230067 0.000000 0.000000 0.000000 2.185311 -2.432361 28.474305 9.984927 -2.706162 -14.543134 6.570735 11.518033 27.402721 -0.045819 4.452467 -36.046478 0.000000 0.000000 0.000000 -35.336297 -5.363181 -7.092044 -40.877895 0.690617 -4.500775 -20.244926 -41.180523 8.185694 0.000000 0.000000 0.000000 19.332201 17.808544 12.866590 26.774103 23.782482 -0.217454 -34.372595 43.477863 -10.259611 0.000000 0.000000 0.000000 
-0.042013 0.915721 -0.292847 5.125882 9.685396 2.864059 7.642294 -0.766143 -13.946544 -9.550878 1.244658 13.410992 2.879734 6.308632 0.651009 0.000000 0.000000 0.000000 -15.936287 -1.174231 -19.440717 11.531412 -4.313934 28.382594 1.377763 1.658555 3.985233 0.000000 0.000000 0.000000 1.629319 -2.084698 26.621644 10.590887 -2.984999 -14.073503 6.390300 11.449886 27.468394 0.147892 4.380668 -36.432255 0.000000 0.000000 0.000000 -34.875966 -4.698342 -7.405168 -41.012681 0.868217 -4.641992 -21.435872 -40.911678 8.560473 0.000000 0.000000 0.000000 19.782415 16.271922 12.143254 30.248968 21.255279 -0.568210 -33.723418 53.366514 -12.446752 0.000000 0.000000 0.000000 
-0.030943 0.920782 -0.295164 4.661903 10.267531 2.992377 7.184865 -0.783536 -13.321045 -9.220312 1.116810 11.729317 2.469321 5.740787 1.246309 0.000000 0.000000 0.000000 -15.864491 -1.065109 -17.594458 11.344726 -3.922593 25.187078 1.062918 0.815101 4.412652 0.000000 0.000000 0.000000 0.936467 -1.703087 24.096300 10.769723 -3.139046 -13.352012 6.410033 10.720496 27.566079 -0.350622 4.550266 -36.115495 0.000000 0.000000 0.000000 -35.268909 -3.703619 -8.079941 -40.222029 0.865385 -4.569301 -23.959428 -40.605838 9.470750 0.000000 0.000000 0.000000 19.546724 15.110067 11.359296 33.601356 19.248025 -0.881248 -33.786624 62.675108 -14.754602 0.000000 0.000000 0.000000 
-0.020030 0.924981 -0.298124 4.120996 10.975059 2.828099 7.036935 -0.764163 -12.507641 -9.276355 1.059967 10.150217 2.007710 5.048551 1.738376 0.000000 0.000000 0.000000 -15.451561 -0.962260 -16.342306 10.573158 -3.488535 23.267505 0.896917 0.027324 5.678239 0.000000 0.000000 0.000000 0.346491 -1.449881 22.382823 10.871063 -3.179657 -13.267925 6.428286 10.557162 27.783666 -0.285919 4.584839 -35.720987 0.000000 0.000000 0.000000 -35.237785 -3.421091 -8.421756 -39.812491 1.797133 -4.781675 -25.460230 -41.156262 10.145101 0.000000 0.000000 0.000000 20.262801 14.485602 11.323001 34.360546 17.652678 -1.376463 -36.551856 69.197441 -18.416717 0.000000 0.000000 0.000000 
-0.009391 0.928289 -0.301518 3.318425 11.713954 2.984536 7.128905 -0.776871 -12.511272 -9.218420 0.999350 9.225872 1.634817 4.469134 2.042967 0.000000 0.000000 0.000000 -14.798440 -0.829773 -15.328624 10.142098 -3.140155 20.817601 0.335651 -1.595452 7.161172 0.000000 0.000000 0.000000 -0.514448 -1.108979 19.985759 10.981412 -3.276079 -12.790404 6.373601 10.514269 27.743091 -0.765962 4.874657 -35.468416 0.000000 0.000000 0.000000 -35.484379 -2.986341 -9.068573 -39.020755 2.034562 -4.657752 -26.407209 -41.360055 10.519813 0.000000 0.000000 0.000000 21.182328 14.278732 11.645005 34.190090 17.561504 -1.525439 -43.953256 74.308575 -25.733687 0.000000 0.000000 0.000000 
0.001284 0.930775 -0.305126 2.748021 12.835326 3.038210 6.746103 -0.816527 -12.427181 -8.792834 0.878690 8.346279 1.132253 3.567039 2.176410 0.000000 0.000000 0.000000 -14.227182 -0.742516 -14.227439 9.762176 -2.917866 19.016301 -0.881565 -4.200177 7.679881 0.000000 0.000000 0.000000 -1.450569 -0.851501 18.307691 11.164298 -3.257270 -13.274644 6.293323 10.847635 27.933884 -0.484348 4.928614 -34.809034 0.000000 0.000000 0.000000 -35.495495 -2.852655 -9.753186 -38.693341 2.922315 -4.723961 -27.235136 -42.819975 11.122188 0.000000 0.000000 0.000000 21.469984 14.140355 11.972037 32.456212 18.937007 -1.333081 -50.219787 76.688452 -31.868797 0.000000 0.000000 0.000000 
0.012178 0.932181 -0.308800 2.189037 14.127262 3.308031 6.591117 -0.897230 -13.142086 -8.811218 0.835538 8.389652 0.675947 2.661464 2.119505 0.000000 0.000000 0.000000 -14.038863 -0.716525 -13.006703 9.607146 -2.750440 16.938136 -1.548556 -5.481298 7.704825 0.000000 0.000000 0.000000 -2.135154 -0.648692 16.437110 11.006341 -3.096163 -13.839643 6.163331 11.358890 28.447411 -1.028146 5.409206 -34.655848 0.000000 0.000000 0.000000 -35.916659 -2.474509 -10.967281 -37.935917 3.283877 -4.505027 -28.214986 -43.540792 11.585837 0.000000 0.000000 0.000000 21.312415 14.017424 12.262992 30.325316 20.188609 -1.197077 -61.840307 76.550402 -41.296562 0.000000 0.000000 0.000000 
0.023176 0.932197 -0.312322 1.802161 15.727458 3.616476 6.186099 -1.007959 -13.911447 -8.749464 0.772111 8.519029 0.184101 1.508383 1.776848 0.000000 0.000000 0.000000 -13.790135 -0.740690 -12.538822 9.774021 -2.809946 15.934632 -3.434229 -9.348754 8.209120 0.000000 0.000000 0.000000 -2.602402 -0.549821 15.398886 10.663870 -2.812735 -14.763469 6.035515 12.186748 28.830107 -0.589178 5.517481 -34.680279 0.000000 0.000000 0.000000 -35.985471 -2.642101 -11.992549 -37.595672 3.702017 -4.269550 -29.605676 -44.820565 12.298788 0.000000 0.000000 0.000000 20.685247 14.256900 12.755587 28.633497 22.792061 -0.770777 -64.744799 75.121968 -42.319354 0.000000 0.000000 0.000000 
0.033868 0.931720 -0.315292 1.387629 16.979248 3.816766 5.789434 -1.111758 -14.600285 -8.621211 0.713576 8.869032 -0.112448 0.602617 1.270696 0.000000 0.000000 0.000000 -13.453577 -0.735923 -12.124987 9.429218 -2.719244 15.281924 -4.597030 -11.655009 8.420213 0.000000 0.000000 0.000000 -3.118484 -0.450180 14.502548 10.123897 -2.537083 -15.229907 6.229873 13.340215 29.283713 -0.711583 5.878371 -35.230768 0.000000 0.000000 0.000000 -35.574209 -2.494374 -13.088984 -37.708876 3.601367 -4.008304 -31.480919 -45.476645 13.007216 0.000000 0.000000 0.000000 19.653142 14.679719 13.157518 27.020635 25.179211 -0.358906 -65.409351 72.627323 -40.734874 0.000000 0.000000 0.000000 
